<?xml version="1.0" standalone="no"?>
<!DOCTYPE svg PUBLIC "-//W3C//DTD SVG 20010904//EN"
 "http://www.w3.org/TR/2001/REC-SVG-20010904/DTD/svg10.dtd">
<svg version="1.0" xmlns="http://www.w3.org/2000/svg"
 width="883.000000pt" height="883.000000pt" viewBox="0 0 883.000000 883.000000"
 preserveAspectRatio="xMidYMid meet">
<metadata>
Created by potrace 1.11, written by Peter Selinger 2001-2013
</metadata>
<g transform="translate(0.000000,883.000000) scale(0.100000,-0.100000)"
fill="#000000" stroke="none">
<path d="M4275 6181 c-83 -42 -152 -78 -155 -81 -3 -3 -39 -22 -80 -43 -41
-22 -106 -56 -145 -76 -111 -59 -402 -210 -490 -255 -44 -23 -81 -44 -83 -48
-2 -5 -12 -8 -22 -8 -10 0 -20 -3 -22 -7 -1 -5 -25 -19 -53 -33 -27 -14 -84
-43 -126 -66 -41 -22 -81 -38 -87 -36 -7 2 -12 -7 -12 -21 0 -14 6 -27 13 -30
6 -2 68 25 137 61 69 36 166 86 215 111 50 25 92 48 95 51 3 3 34 20 70 37 36
18 115 59 175 91 197 104 408 214 500 261 50 25 92 48 95 51 3 3 30 18 61 33
55 27 94 34 101 20 2 -5 26 -19 53 -33 28 -13 94 -48 148 -76 53 -29 97 -49
97 -46 0 4 4 2 8 -4 4 -6 34 -24 67 -41 33 -16 110 -56 170 -88 100 -52 163
-85 440 -230 50 -26 95 -51 102 -57 7 -5 19 -11 26 -12 8 -1 21 -6 28 -12 25
-18 216 -114 228 -114 6 0 11 10 11 23 0 18 -11 28 -47 45 -27 12 -100 49
-163 83 -63 33 -176 93 -250 131 -74 39 -171 90 -215 113 -44 23 -136 72 -205
107 -252 132 -386 202 -430 225 -106 57 -89 59 -255 -26z"/>
<path d="M4430 6154 c0 -6 -13 -11 -28 -12 -40 -1 -150 -40 -187 -65 -134 -95
-196 -254 -155 -404 42 -154 169 -265 323 -282 4 -1 7 -4 7 -8 0 -5 -313 -7
-695 -6 l-695 2 4 -22 3 -22 1417 0 c1412 0 1417 0 1414 20 -3 20 -11 20 -448
22 -245 1 -557 3 -694 3 -137 0 -247 2 -245 4 3 3 18 7 35 10 210 37 353 245
310 451 -10 45 -55 133 -88 170 -58 66 -138 107 -252 128 -6 1 -14 7 -18 12
-5 6 -8 6 -8 -1z"/>
<path d="M2130 5120 l0 -170 -455 0 -456 0 3 -957 3 -958 3188 -1 3187 -1 0
958 0 959 -405 0 -405 0 0 170 0 170 -2330 0 -2330 0 0 -170z"/>
<path d="M601 2838 c-5 -13 -18 -47 -30 -76 -12 -29 -21 -57 -21 -62 0 -16 57
-11 64 5 7 20 52 19 60 -1 6 -17 57 -16 56 1 0 6 -13 43 -28 82 -26 70 -28 73
-60 73 -25 0 -35 -5 -41 -22z m47 -77 c-15 -5 -21 7 -13 26 7 17 8 17 15 -2 4
-11 3 -22 -2 -24z"/>
<path d="M750 2775 l0 -85 30 0 c25 0 30 4 30 25 0 21 5 25 28 25 35 0 62 27
62 63 0 42 -24 57 -91 57 l-59 0 0 -85z m88 22 c2 -10 -3 -17 -11 -17 -16 0
-30 24 -19 34 10 10 27 1 30 -17z"/>
<path d="M937 2819 c29 -44 29 -39 -15 -106 -14 -22 -13 -23 16 -23 19 0 35 8
46 23 l16 22 16 -22 c11 -16 27 -23 50 -23 l33 0 -30 45 -30 45 19 27 c35 52
35 53 3 53 -23 0 -34 -7 -45 -27 l-14 -28 -11 28 c-9 22 -17 27 -46 27 l-35 0
27 -41z"/>
<path d="M1110 2775 l0 -85 75 0 c68 0 75 2 75 20 0 17 -7 20 -45 20 -33 0
-45 4 -45 15 0 11 11 15 40 15 33 0 40 3 40 20 0 17 -7 20 -40 20 -22 0 -40 5
-40 10 0 6 21 10 46 10 38 0 45 3 42 18 -3 14 -16 18 -76 20 l-72 3 0 -86z"/>
<path d="M1290 2775 c0 -84 0 -85 25 -85 29 0 27 -6 29 93 l2 77 -28 0 -28 0
0 -85z"/>
<path d="M1423 2848 c-5 -7 -21 -46 -36 -85 l-26 -73 30 0 c17 0 32 6 35 15 4
8 17 15 30 15 14 0 27 -7 30 -15 4 -9 19 -15 36 -15 33 0 33 -4 -7 105 -20 53
-26 60 -52 63 -16 2 -34 -3 -40 -10z m47 -68 c9 -16 8 -20 -5 -20 -8 0 -15 9
-15 20 0 11 2 20 5 20 2 0 9 -9 15 -20z"/>
<path d="M1567 2853 c-4 -3 -7 -42 -7 -85 l0 -78 30 0 c28 0 36 10 32 42 -1 3
5 9 13 12 10 3 20 -5 30 -24 13 -25 22 -30 51 -30 l36 0 -23 38 c-13 20 -27
45 -33 54 -8 13 -4 22 17 40 35 31 34 38 -5 38 -23 0 -39 -9 -59 -32 l-28 -33
3 33 c3 29 1 32 -24 32 -15 0 -30 -3 -33 -7z"/>
<path d="M1767 2853 c-2 -5 -5 -43 -6 -85 l-2 -78 30 0 c31 0 35 6 31 48 -1
17 4 22 24 22 23 0 26 -4 26 -35 0 -32 2 -35 30 -35 17 0 30 3 31 8 5 45 4
144 -1 153 -4 6 -18 9 -31 7 -19 -2 -24 -9 -24 -30 1 -24 -3 -28 -27 -28 -25
0 -27 3 -24 30 3 27 1 30 -25 30 -15 0 -30 -3 -32 -7z"/>
<path d="M2043 2844 c-3 -9 5 -27 22 -44 l28 -30 -26 -23 c-15 -12 -27 -30
-27 -40 0 -15 11 -17 78 -17 71 0 78 2 78 20 0 17 -7 20 -44 20 l-43 0 26 24
26 24 -28 21 -28 20 43 1 c35 0 42 3 42 20 0 18 -7 20 -70 20 -55 0 -72 -4
-77 -16z"/>
<path d="M2210 2852 c0 -5 14 -28 30 -50 20 -28 30 -54 30 -77 0 -32 2 -35 30
-35 28 0 30 2 28 38 -1 28 7 49 31 82 l33 45 -28 3 c-20 3 -33 -4 -50 -25
l-22 -28 -11 28 c-8 21 -17 27 -41 27 -16 0 -30 -4 -30 -8z"/>
<path d="M2441 2838 c-5 -13 -18 -47 -30 -76 -27 -68 -27 -72 8 -72 26 0 30 5
40 44 15 63 27 64 41 6 l12 -51 61 3 60 3 17 55 17 55 17 -58 c15 -53 19 -57
46 -57 17 0 30 1 30 3 0 3 -31 88 -51 140 -8 21 -18 27 -39 27 -34 0 -37 -4
-71 -94 -25 -68 -26 -68 -36 -40 -48 129 -48 129 -81 132 -26 3 -34 -1 -41
-20z"/>
<path d="M2798 2830 c-26 -27 -30 -36 -25 -68 8 -49 38 -72 93 -72 44 0 82 26
85 57 5 51 0 71 -21 91 -11 10 -37 19 -60 20 -34 2 -46 -2 -72 -28z m86 -26
c20 -19 20 -35 2 -60 -12 -15 -18 -17 -33 -8 -22 14 -29 50 -13 70 16 18 25
18 44 -2z"/>
<path d="M2980 2775 l0 -85 29 0 c28 0 28 1 27 53 -3 72 0 77 45 77 32 0 39 3
39 20 0 18 -7 20 -70 20 l-70 0 0 -85z"/>
<path d="M3140 2775 l0 -85 29 0 c27 0 29 3 28 33 -2 28 1 32 26 35 25 3 27 1
27 -32 0 -33 2 -36 29 -36 l29 0 1 85 1 85 -30 0 c-27 0 -30 -3 -30 -30 0 -26
-3 -30 -29 -30 -26 0 -28 3 -25 30 3 27 1 30 -26 30 l-30 0 0 -85z"/>
<path d="M3420 2775 l0 -86 107 3 107 3 17 55 16 54 17 -57 17 -58 61 3 62 3
16 55 17 55 17 -57 c15 -54 19 -58 46 -58 17 0 30 2 30 4 0 2 -14 41 -31 85
-28 75 -33 81 -59 81 -35 0 -42 -9 -73 -95 l-25 -70 -16 39 c-9 21 -16 41 -16
44 0 3 -8 23 -17 44 -14 31 -22 38 -44 38 -33 0 -36 -4 -71 -95 -15 -38 -27
-62 -27 -52 -1 13 -10 17 -46 17 -33 0 -45 4 -45 15 0 11 11 15 40 15 33 0 40
3 40 20 0 17 -7 20 -39 20 -22 0 -43 5 -46 10 -4 6 13 10 42 10 42 0 49 3 50
20 2 18 -4 20 -73 20 l-74 0 0 -85z"/>
<path d="M3967 2853 c-4 -3 -7 -42 -7 -85 l0 -78 30 0 c30 0 35 8 31 53 -2 12
5 17 23 17 23 0 26 -4 26 -35 0 -33 2 -35 33 -35 l32 0 -1 73 c-2 102 -1 99
-31 95 -23 -2 -28 -8 -28 -30 1 -24 -3 -28 -27 -28 -25 0 -27 3 -24 30 3 27 0
30 -24 30 -15 0 -30 -3 -33 -7z"/>
<path d="M4167 2853 c-3 -5 -5 -43 -6 -85 l-1 -78 30 0 c29 0 30 2 30 43 l0
42 28 -42 c21 -33 33 -43 55 -43 15 0 28 3 28 8 4 24 5 139 1 150 -2 6 -15 12
-28 12 -22 0 -24 -4 -24 -47 l0 -46 -31 46 c-22 34 -37 47 -54 47 -13 0 -26
-3 -28 -7z"/>
<path d="M4370 2774 l0 -85 28 3 c27 3 27 3 27 86 l1 82 -28 0 -28 0 0 -86z"/>
<path d="M4460 2775 l0 -85 31 0 c20 0 29 4 26 13 -5 14 10 47 22 47 5 0 14
-13 21 -30 10 -25 18 -30 46 -30 19 0 34 3 34 8 0 4 -13 27 -30 52 l-30 45 32
32 32 33 -36 0 c-28 0 -42 -7 -61 -30 -19 -22 -26 -26 -31 -15 -3 8 -3 22 0
30 5 11 -1 15 -25 15 l-31 0 0 -85z"/>
<path d="M4660 2776 l0 -86 31 0 c25 0 30 4 29 23 -4 40 0 47 25 47 22 0 25
-4 25 -35 0 -32 2 -35 30 -35 l29 0 0 85 0 85 -29 0 c-27 0 -30 -3 -30 -31 0
-27 -3 -30 -27 -27 -22 2 -28 8 -28 28 0 20 -6 26 -27 28 l-28 3 0 -85z"/>
<path d="M4860 2836 c0 -15 10 -30 26 -41 l26 -17 -26 -27 c-47 -49 -37 -61
49 -61 68 0 75 2 75 20 0 17 -7 20 -42 20 l-42 0 23 21 22 21 -22 24 -22 24
41 0 c35 0 41 3 39 20 -1 18 -8 20 -74 20 -70 0 -73 -1 -73 -24z"/>
<path d="M5110 2775 l0 -85 30 0 c30 0 30 1 29 48 -2 79 -1 82 26 82 24 0 25
-2 25 -65 0 -65 0 -65 29 -65 l29 0 0 85 0 85 -84 0 -84 0 0 -85z"/>
<path d="M5353 2848 c-5 -7 -22 -46 -36 -85 l-27 -73 31 0 c17 0 32 6 35 15 4
9 19 15 35 15 19 0 29 -5 29 -15 0 -10 10 -15 30 -15 17 0 30 3 29 8 0 4 -12
41 -28 82 -25 69 -30 75 -58 78 -16 2 -34 -3 -40 -10z m46 -70 c12 -16 11 -18
-7 -18 -15 0 -19 5 -15 20 3 12 6 19 7 18 1 -2 8 -11 15 -20z"/>
<path d="M5507 2853 c-3 -5 -5 -43 -6 -85 l-1 -78 30 0 30 0 0 85 c0 83 0 85
-24 85 -14 0 -27 -3 -29 -7z"/>
<path d="M5633 2848 c-6 -7 -22 -46 -36 -85 l-26 -73 95 0 c107 0 103 -5 66
80 -8 19 -16 41 -18 48 -7 33 -15 42 -42 42 -16 0 -34 -6 -39 -12z m47 -87 c8
-28 7 -31 -15 -31 -22 0 -23 2 -14 32 5 18 9 35 9 37 0 12 12 -10 20 -38z"/>
<path d="M5780 2775 l0 -85 29 0 30 0 0 85 0 85 -29 0 -30 0 0 -85z"/>
<path d="M5870 2775 l0 -85 29 0 c25 0 30 5 33 27 4 37 23 39 38 3 10 -25 18
-30 46 -30 19 0 34 3 34 8 0 4 -13 27 -29 52 l-29 45 31 33 31 32 -35 0 c-25
0 -43 -8 -59 -25 -13 -14 -27 -25 -31 -25 -4 0 -6 11 -3 25 4 22 1 25 -26 25
l-30 0 0 -85z"/>
<path d="M6070 2775 l0 -85 31 0 c28 0 30 2 27 33 -3 28 0 32 25 35 25 3 27 1
27 -32 0 -33 2 -36 28 -36 l29 0 1 85 2 85 -31 0 c-29 0 -31 -2 -27 -30 4 -28
2 -30 -27 -30 -29 0 -31 2 -27 30 4 28 2 30 -27 30 l-31 0 0 -85z"/>
<path d="M6270 2836 c0 -15 10 -30 26 -41 l26 -17 -26 -27 c-47 -49 -37 -61
49 -61 68 0 75 2 75 20 0 17 -7 20 -42 20 l-42 0 24 22 23 22 -27 23 -27 23
43 0 c37 0 44 3 45 20 2 18 -4 20 -73 20 -71 0 -74 -1 -74 -24z"/>
<path d="M6520 2840 c0 -16 7 -20 35 -20 19 0 35 -4 35 -8 0 -4 -18 -26 -40
-47 -22 -21 -40 -47 -40 -57 0 -16 10 -18 85 -18 78 0 85 2 85 20 0 17 -7 20
-50 20 l-51 0 46 43 c25 23 47 52 50 65 4 21 1 22 -76 22 -72 0 -79 -2 -79
-20z"/>
<path d="M6728 2845 c-15 -8 -29 -24 -33 -34 -8 -25 4 -71 19 -71 6 0 3 -5 -6
-11 -10 -5 -18 -17 -18 -25 0 -24 82 -15 86 10 1 10 -4 25 -12 33 -28 29 -4
83 31 69 24 -9 28 -33 11 -67 -25 -50 -21 -59 23 -59 40 0 65 25 36 36 -13 5
-13 9 -1 26 18 26 11 68 -15 91 -26 21 -84 22 -121 2z"/>
<path d="M6900 2774 l0 -85 28 3 c26 3 27 5 27 66 l0 62 43 0 c35 0 42 3 42
20 0 18 -7 20 -70 20 l-70 0 0 -86z"/>
<path d="M7060 2775 l0 -85 30 0 c27 0 30 3 26 25 -4 23 -2 25 33 25 31 0 40
5 49 25 30 65 5 95 -79 95 l-59 0 0 -85z m88 22 c2 -10 -3 -17 -11 -17 -16 0
-30 24 -19 34 10 10 27 1 30 -17z"/>
<path d="M7273 2848 c-5 -7 -22 -46 -36 -85 l-27 -73 31 0 c17 0 32 6 35 15 4
9 19 15 35 15 19 0 29 -5 29 -15 0 -10 10 -15 30 -15 17 0 30 3 29 8 0 4 -12
41 -28 82 -25 69 -30 75 -58 78 -16 2 -34 -3 -40 -10z m52 -87 c-10 -10 -34
10 -29 24 6 14 8 13 19 -2 8 -10 12 -20 10 -22z"/>
<path d="M7490 2850 c0 -5 -6 -10 -14 -10 -27 0 -66 -41 -66 -70 0 -31 30 -60
62 -60 10 0 18 -4 18 -10 0 -5 11 -10 25 -10 14 0 25 5 25 10 0 6 8 10 18 10
32 0 53 24 57 63 3 35 1 39 -33 55 -20 9 -38 20 -40 25 -5 11 -52 9 -52 -3z
m0 -81 c0 -11 -4 -17 -10 -14 -5 3 -10 13 -10 21 0 8 5 14 10 14 6 0 10 -9 10
-21z m70 7 c0 -8 -4 -18 -10 -21 -5 -3 -10 3 -10 14 0 12 5 21 10 21 6 0 10
-6 10 -14z"/>
<path d="M7640 2775 l0 -85 30 0 30 0 0 85 0 85 -30 0 -30 0 0 -85z"/>
<path d="M7737 2853 c-4 -3 -7 -42 -7 -85 l0 -78 30 0 c25 0 30 4 30 24 0 37
27 40 45 6 13 -25 22 -30 51 -30 l36 0 -23 38 c-13 20 -27 45 -33 54 -8 13 -4
22 17 42 34 32 34 36 -5 36 -23 0 -39 -8 -59 -32 l-27 -33 2 33 c2 29 -1 32
-24 32 -15 0 -30 -3 -33 -7z"/>
<path d="M7930 2775 l0 -85 30 0 c30 0 37 13 31 58 -1 7 9 12 24 12 22 0 25
-4 25 -35 0 -32 2 -35 30 -35 33 0 32 -3 34 91 1 72 -3 82 -35 77 -19 -2 -24
-9 -24 -30 1 -24 -3 -28 -28 -28 -21 0 -28 5 -26 18 3 35 -2 42 -31 42 l-30 0
0 -85z"/>
<path d="M8133 2844 c-3 -9 6 -27 23 -45 l29 -31 -27 -22 c-16 -12 -28 -30
-28 -39 0 -16 9 -17 78 -15 60 2 77 6 77 18 0 11 -13 16 -44 18 -42 3 -43 4
-22 18 27 19 26 28 -1 54 l-22 20 42 0 c35 0 42 3 42 20 0 18 -7 20 -70 20
-55 0 -72 -4 -77 -16z"/>
</g>
</svg>
